<?xml version="1.0" standalone="no"?>
<!DOCTYPE svg PUBLIC "-//W3C//DTD SVG 20010904//EN"
 "http://www.w3.org/TR/2001/REC-SVG-20010904/DTD/svg10.dtd">
<svg version="1.0" xmlns="http://www.w3.org/2000/svg"
 width="225.000000pt" height="225.000000pt" viewBox="0 0 225.000000 225.000000"
 preserveAspectRatio="xMidYMid meet">
<metadata>
Created by potrace 1.11, written by Peter Selinger 2001-2013
</metadata>
<g transform="translate(0.000000,225.000000) scale(0.100000,-0.100000)"
fill="#000000" stroke="none">
<path d="M1020 1624 c-98 -21 -184 -68 -255 -139 -75 -74 -119 -159 -142 -270
-27 -134 7 -278 93 -395 107 -146 304 -229 475 -201 147 24 263 92 343 201 86
117 120 261 93 395 -44 214 -193 366 -402 410 -85 18 -120 18 -205 -1z m258
-55 c328 -114 423 -529 178 -775 -186 -186 -476 -186 -662 0 -186 186 -186
476 0 662 130 129 314 173 484 113z"/>
<path d="M920 1320 l0 -140 176 0 176 0 29 -29 c28 -28 29 -34 29 -116 0 -82
-1 -88 -29 -116 l-29 -29 -177 0 c-173 0 -176 0 -165 -20 6 -11 29 -33 52 -48
39 -25 49 -27 174 -30 116 -3 137 -1 170 16 87 44 114 99 114 227 0 106 -11
144 -56 188 -53 53 -79 61 -221 65 l-133 4 0 65 c0 88 -10 103 -65 103 l-45 0
0 -140z"/>
</g>
</svg>
